<?xml version="1.0" encoding="UTF-8" standalone="no"?>
<svg xmlns:ffdec="https://www.free-decompiler.com/flash" xmlns:xlink="http://www.w3.org/1999/xlink" ffdec:objectType="frame" height="44.0px" width="44.0px" xmlns="http://www.w3.org/2000/svg">
  <g transform="matrix(1.0, 0.0, 0.0, 1.0, 0.0, 0.0)">
    <use ffdec:characterId="1" height="44.0" transform="matrix(1.0, 0.0, 0.0, 1.0, 0.0, 0.0)" width="44.0" xlink:href="#shape0"/>
    <use ffdec:characterId="3" height="38.0" transform="matrix(1.0, 0.0, 0.0, 1.0, 3.05, 3.0)" width="38.0" xlink:href="#sprite0"/>
  </g>
  <defs>
    <g id="shape0" transform="matrix(1.0, 0.0, 0.0, 1.0, 0.0, 0.0)">
      <path d="M44.0 44.0 L0.0 44.0 0.0 0.0 44.0 0.0 44.0 44.0" fill="#43adca" fill-opacity="0.0" fill-rule="evenodd" stroke="none"/>
    </g>
    <g id="sprite0" transform="matrix(1.0, 0.0, 0.0, 1.0, 0.0, 0.0)">
      <use ffdec:characterId="2" height="38.0" transform="matrix(1.0, 0.0, 0.0, 1.0, 0.0, 0.0)" width="38.0" xlink:href="#shape1"/>
    </g>
    <g id="shape1" transform="matrix(1.0, 0.0, 0.0, 1.0, 0.0, 0.0)">
      <path d="M38.0 7.65 L26.65 19.05 37.95 30.35 Q35.9 35.1 30.35 38.0 L19.0 26.65 7.65 38.0 Q2.4 36.85 0.05 30.35 L11.4 19.05 0.0 7.65 Q2.25 2.9 7.65 0.0 L19.0 11.4 30.4 0.0 Q35.1 2.25 38.0 7.65 M32.85 5.8 Q33.5 3.6 32.5 2.65 31.55 1.6 29.4 2.45 27.3 3.25 25.4 5.4 23.45 7.5 22.75 9.7 22.1 11.9 23.1 12.95 L26.2 13.1 Q28.3 12.25 30.2 10.15 32.15 8.05 32.85 5.8" fill="#d31f05" fill-rule="evenodd" stroke="none"/>
      <path d="M32.85 5.8 Q32.15 8.05 30.2 10.15 28.3 12.25 26.2 13.1 L23.1 12.95 Q22.1 11.9 22.75 9.7 23.45 7.5 25.4 5.4 27.3 3.25 29.4 2.45 31.55 1.6 32.5 2.65 33.5 3.6 32.85 5.8" fill="#fb786a" fill-rule="evenodd" stroke="none"/>
    </g>
  </defs>
</svg>
